<?xml version="1.0" encoding="UTF-8" standalone="no"?>
<!DOCTYPE svg PUBLIC "-//W3C//DTD SVG 1.1//EN"
 "http://www.w3.org/Graphics/SVG/1.1/DTD/svg11.dtd">
<!-- Generated by graphviz version 12.2.1 (20241206.2353)
 -->
<!-- Pages: 1 -->
<svg width="385pt" height="260pt"
 viewBox="0.00 0.00 384.75 260.00" xmlns="http://www.w3.org/2000/svg" xmlns:xlink="http://www.w3.org/1999/xlink">
<g id="graph0" class="graph" transform="scale(1 1) rotate(0) translate(4 256)">
<polygon fill="white" stroke="none" points="-4,4 -4,-256 380.75,-256 380.75,4 -4,4"/>
<!-- &#45;7229111445144554660 -->
<g id="node1" class="node">
<title>&#45;7229111445144554660</title>
<polygon fill="none" stroke="black" points="331.38,-252 45.38,-252 45.38,-216 331.38,-216 331.38,-252"/>
<text text-anchor="middle" x="188.38" y="-226.62" font-family="Helvetica,sans-Serif" font-size="20.00">Projection(Drop, trip_distance)</text>
</g>
<!-- &#45;6201748614772422779 -->
<g id="node2" class="node">
<title>&#45;6201748614772422779</title>
<polygon fill="none" stroke="black" points="256.38,-180 120.38,-180 120.38,-144 256.38,-144 256.38,-180"/>
<text text-anchor="middle" x="188.38" y="-154.62" font-family="Helvetica,sans-Serif" font-size="20.00">Drop(Concat)</text>
</g>
<!-- &#45;6201748614772422779&#45;&gt;&#45;7229111445144554660 -->
<g id="edge1" class="edge">
<title>&#45;6201748614772422779&#45;&gt;&#45;7229111445144554660</title>
<path fill="none" stroke="black" d="M188.38,-180.3C188.38,-187.59 188.38,-196.27 188.38,-204.46"/>
<polygon fill="black" stroke="black" points="184.88,-204.38 188.38,-214.38 191.88,-204.38 184.88,-204.38"/>
</g>
<!-- 8877057413533112657 -->
<g id="node3" class="node">
<title>8877057413533112657</title>
<polygon fill="none" stroke="black" points="376.75,-108 0,-108 0,-72 376.75,-72 376.75,-108"/>
<text text-anchor="middle" x="188.38" y="-82.62" font-family="Helvetica,sans-Serif" font-size="20.00">Concat(ReadCSV, ReadCSV, ReadCSV)</text>
</g>
<!-- 8877057413533112657&#45;&gt;&#45;6201748614772422779 -->
<g id="edge2" class="edge">
<title>8877057413533112657&#45;&gt;&#45;6201748614772422779</title>
<path fill="none" stroke="black" d="M188.38,-108.3C188.38,-115.59 188.38,-124.27 188.38,-132.46"/>
<polygon fill="black" stroke="black" points="184.88,-132.38 188.38,-142.38 191.88,-132.38 184.88,-132.38"/>
</g>
<!-- 7153651159255458347 -->
<g id="node4" class="node">
<title>7153651159255458347</title>
<polygon fill="none" stroke="black" points="118,-36 12.75,-36 12.75,0 118,0 118,-36"/>
<text text-anchor="middle" x="65.38" y="-10.62" font-family="Helvetica,sans-Serif" font-size="20.00">ReadCSV</text>
</g>
<!-- 7153651159255458347&#45;&gt;8877057413533112657 -->
<g id="edge4" class="edge">
<title>7153651159255458347&#45;&gt;8877057413533112657</title>
<path fill="none" stroke="black" d="M96.1,-36.48C111.92,-45.49 131.4,-56.58 148.38,-66.24"/>
<polygon fill="black" stroke="black" points="146.31,-69.09 156.73,-70.99 149.77,-63 146.31,-69.09"/>
</g>
<!-- &#45;5736966137066898642 -->
<g id="node5" class="node">
<title>&#45;5736966137066898642</title>
<polygon fill="none" stroke="black" points="241,-36 135.75,-36 135.75,0 241,0 241,-36"/>
<text text-anchor="middle" x="188.38" y="-10.62" font-family="Helvetica,sans-Serif" font-size="20.00">ReadCSV</text>
</g>
<!-- &#45;5736966137066898642&#45;&gt;8877057413533112657 -->
<g id="edge5" class="edge">
<title>&#45;5736966137066898642&#45;&gt;8877057413533112657</title>
<path fill="none" stroke="black" d="M188.38,-36.3C188.38,-43.59 188.38,-52.27 188.38,-60.46"/>
<polygon fill="black" stroke="black" points="184.88,-60.38 188.38,-70.38 191.88,-60.38 184.88,-60.38"/>
</g>
<!-- &#45;5738503893287360606 -->
<g id="node6" class="node">
<title>&#45;5738503893287360606</title>
<polygon fill="none" stroke="black" points="364,-36 258.75,-36 258.75,0 364,0 364,-36"/>
<text text-anchor="middle" x="311.38" y="-10.62" font-family="Helvetica,sans-Serif" font-size="20.00">ReadCSV</text>
</g>
<!-- &#45;5738503893287360606&#45;&gt;8877057413533112657 -->
<g id="edge3" class="edge">
<title>&#45;5738503893287360606&#45;&gt;8877057413533112657</title>
<path fill="none" stroke="black" d="M280.65,-36.48C264.83,-45.49 245.35,-56.58 228.37,-66.24"/>
<polygon fill="black" stroke="black" points="226.98,-63 220.02,-70.99 230.44,-69.09 226.98,-63"/>
</g>
</g>
</svg>
